<?xml version="1.0" standalone="no"?>
<!DOCTYPE svg PUBLIC "-//W3C//DTD SVG 20010904//EN"
 "http://www.w3.org/TR/2001/REC-SVG-20010904/DTD/svg10.dtd">
<svg version="1.0" xmlns="http://www.w3.org/2000/svg"
 width="512.000000pt" height="512.000000pt" viewBox="0 0 512.000000 512.000000"
 preserveAspectRatio="xMidYMid meet">

<g transform="translate(0.000000,512.000000) scale(0.100000,-0.100000)"
fill="#000000" stroke="none">
<path d="M1906 4965 c-47 -16 -100 -66 -129 -120 -20 -36 -22 -59 -25 -232
l-4 -193 -550 0 c-547 0 -550 0 -589 -22 -71 -40 -79 -71 -79 -318 0 -193 2
-218 20 -255 31 -63 78 -85 183 -85 l85 0 7 -72 c3 -40 57 -809 120 -1708 91
-1319 117 -1644 130 -1678 21 -51 90 -114 143 -130 56 -17 2628 -17 2684 0 53
16 122 78 143 130 17 44 61 562 50 605 -7 31 -49 57 -80 49 -47 -12 -52 -36
-70 -296 -19 -301 -20 -306 -52 -336 l-26 -24 -1307 0 -1307 0 -26 24 c-14 13
-28 39 -31 57 -3 19 -55 756 -116 1639 -61 883 -113 1635 -116 1673 l-7 67
1602 0 c1185 0 1601 -3 1601 -11 0 -7 -16 -237 -35 -511 -33 -463 -35 -502
-20 -525 20 -30 37 -37 70 -29 50 13 52 24 84 501 17 248 34 478 37 513 l6 62
85 0 c98 0 147 19 178 72 18 30 20 54 23 256 3 212 2 225 -18 268 -15 31 -34
51 -61 64 -37 19 -61 20 -588 20 l-549 0 -4 193 c-3 173 -5 196 -25 233 -29
54 -93 110 -140 123 -25 7 -247 11 -648 11 -493 -1 -617 -4 -649 -15z m1275
-135 c41 -23 49 -59 49 -240 l0 -170 -670 0 -670 0 0 170 c0 179 7 216 47 239
25 14 1217 15 1244 1z m1269 -750 l0 -200 -1890 0 -1890 0 0 200 0 200 1890 0
1890 0 0 -200z"/>
<path d="M1692 2950 c-12 -5 -26 -20 -31 -32 -9 -24 83 -1705 96 -1768 11 -48
48 -68 92 -51 19 8 34 23 37 38 4 14 -16 419 -44 901 l-51 877 -26 23 c-28 24
-38 26 -73 12z"/>
<path d="M2515 2935 l-25 -24 0 -886 0 -886 25 -24 c13 -14 33 -25 45 -25 12
0 32 11 45 25 l25 24 0 886 0 886 -25 24 c-31 32 -59 32 -90 0z"/>
<path d="M3356 2938 l-26 -23 -52 -889 -52 -889 28 -23 c33 -29 56 -30 87 -5
23 19 23 20 70 822 59 991 58 984 39 1003 -28 28 -65 29 -94 4z"/>
<path d="M4077 2292 c-12 -14 -20 -52 -27 -142 -9 -105 -8 -127 5 -147 19 -29
60 -39 90 -23 33 18 36 28 42 168 5 109 4 124 -12 142 -23 25 -76 26 -98 2z"/>
<path d="M4036 1607 c-23 -17 -34 -84 -35 -202 -1 -86 2 -96 36 -114 24 -12
61 -3 82 22 7 9 16 66 21 134 9 107 8 120 -9 143 -21 29 -67 37 -95 17z"/>
</g>
</svg>
